<?xml version="1.0" encoding="UTF-8"?>
<!-- SPDX-FileCopyrightText: 2026 Proper Linux contributors -->
<!-- SPDX-License-Identifier: GPL-3.0-or-later -->
<svg xmlns="http://www.w3.org/2000/svg" width="90" height="52" viewBox="0 0 90 52">
  <style id="current-color-scheme" type="text/css">
    .ColorScheme-Background { color: #181d25; }
    .ColorScheme-Frame { color: #a6afbd; }
  </style>

  <rect id="header-center" x="5" y="5" width="32" height="32" fill="#181d25" fill-opacity="0.90"/>
  <g id="header-top" transform="translate(5 0)">
    <rect width="32" height="5" fill="#181d25" fill-opacity="0.90"/>
    <rect width="32" height="1" fill="#a6afbd" fill-opacity="0.18"/>
  </g>
  <g id="header-bottom" transform="translate(5 37)">
    <rect width="32" height="5" fill="#181d25" fill-opacity="0.90"/>
    <rect y="4" width="32" height="1" fill="#a6afbd" fill-opacity="0.14"/>
  </g>
  <g id="header-left" transform="translate(0 5)">
    <rect width="5" height="32" fill="#181d25" fill-opacity="0.90"/>
    <rect width="1" height="32" fill="#a6afbd" fill-opacity="0.18"/>
  </g>
  <g id="header-right" transform="translate(37 5)">
    <rect width="5" height="32" fill="#181d25" fill-opacity="0.90"/>
    <rect x="4" width="1" height="32" fill="#a6afbd" fill-opacity="0.18"/>
  </g>
  <g id="header-topleft">
    <rect width="5" height="5" fill="#181d25" fill-opacity="0.90"/>
    <path d="M0 0H5V1H1V5H0Z" fill="#a6afbd" fill-opacity="0.18"/>
  </g>
  <g id="header-topright" transform="translate(37 0)">
    <rect width="5" height="5" fill="#181d25" fill-opacity="0.90"/>
    <path d="M0 0H5V5H4V1H0Z" fill="#a6afbd" fill-opacity="0.18"/>
  </g>
  <g id="header-bottomleft" transform="translate(0 37)">
    <rect width="5" height="5" fill="#181d25" fill-opacity="0.90"/>
    <rect width="1" height="5" fill="#a6afbd" fill-opacity="0.18"/>
    <rect x="1" y="4" width="4" height="1" fill="#a6afbd" fill-opacity="0.14"/>
  </g>
  <g id="header-bottomright" transform="translate(37 37)">
    <rect width="5" height="5" fill="#181d25" fill-opacity="0.90"/>
    <rect x="4" width="1" height="5" fill="#a6afbd" fill-opacity="0.18"/>
    <rect y="4" width="4" height="1" fill="#a6afbd" fill-opacity="0.14"/>
  </g>

  <rect id="footer-center" x="53" y="5" width="32" height="32" fill="#181d25" fill-opacity="0.90"/>
  <g id="footer-top" transform="translate(53 0)">
    <rect width="32" height="5" fill="#181d25" fill-opacity="0.90"/>
    <rect width="32" height="1" fill="#a6afbd" fill-opacity="0.14"/>
  </g>
  <g id="footer-bottom" transform="translate(53 37)">
    <rect width="32" height="5" fill="#181d25" fill-opacity="0.90"/>
    <rect y="4" width="32" height="1" fill="#a6afbd" fill-opacity="0.18"/>
  </g>
  <g id="footer-left" transform="translate(48 5)">
    <rect width="5" height="32" fill="#181d25" fill-opacity="0.90"/>
    <rect width="1" height="32" fill="#a6afbd" fill-opacity="0.18"/>
  </g>
  <g id="footer-right" transform="translate(85 5)">
    <rect width="5" height="32" fill="#181d25" fill-opacity="0.90"/>
    <rect x="4" width="1" height="32" fill="#a6afbd" fill-opacity="0.18"/>
  </g>
  <g id="footer-topleft" transform="translate(48 0)">
    <rect width="5" height="5" fill="#181d25" fill-opacity="0.90"/>
    <rect width="1" height="5" fill="#a6afbd" fill-opacity="0.18"/>
    <rect x="1" width="4" height="1" fill="#a6afbd" fill-opacity="0.14"/>
  </g>
  <g id="footer-topright" transform="translate(85 0)">
    <rect width="5" height="5" fill="#181d25" fill-opacity="0.90"/>
    <rect x="4" width="1" height="5" fill="#a6afbd" fill-opacity="0.18"/>
    <rect width="4" height="1" fill="#a6afbd" fill-opacity="0.14"/>
  </g>
  <g id="footer-bottomleft" transform="translate(48 37)">
    <rect width="5" height="5" fill="#181d25" fill-opacity="0.90"/>
    <path d="M0 0H1V4H5V5H0Z" fill="#a6afbd" fill-opacity="0.18"/>
  </g>
  <g id="footer-bottomright" transform="translate(85 37)">
    <rect width="5" height="5" fill="#181d25" fill-opacity="0.90"/>
    <path d="M4 0H5V5H0V4H4Z" fill="#a6afbd" fill-opacity="0.18"/>
  </g>

  <rect id="hint-top-margin" x="43" width="2" height="4" fill="#f0f"/>
  <rect id="hint-bottom-margin" x="43" y="38" width="2" height="4" fill="#f0f"/>
  <rect id="hint-left-margin" x="43" y="20" width="4" height="2" fill="#f0f"/>
  <rect id="hint-right-margin" x="43" y="23" width="4" height="2" fill="#f0f"/>
  <rect id="hint-stretch-borders" x="43" y="28" width="1" height="1" fill="#f60"/>
</svg>
