<?xml version="1.0" encoding="UTF-8"?>
<!-- SPDX-FileCopyrightText: 2026 Proper Linux contributors -->
<!-- SPDX-License-Identifier: GPL-3.0-or-later -->
<!-- Generated by generate-panel-material.py from tokens.yaml (dense popup); do not edit. -->
<svg xmlns="http://www.w3.org/2000/svg" width="240" height="64" viewBox="0 0 240 64">
  <defs>
    <style id="current-color-scheme" type="text/css">
      .ColorScheme-Background { color: #18202a; }
      .ColorScheme-Frame { color: #a6afbd; }
    </style>
  </defs>

  <g id="top" transform="translate(16 0)">
    <rect width="32" height="16" fill="#18202a" fill-opacity="1.00"/>
    <rect width="32" height="1" fill="#a6afbd" fill-opacity="0.100"/>
  </g>
  <g id="bottom" transform="translate(16 48)">
    <rect width="32" height="16" fill="#18202a" fill-opacity="1.00"/>
    <rect y="15" width="32" height="1" fill="#a6afbd" fill-opacity="0.100"/>
  </g>
  <g id="left" transform="translate(0 16)">
    <rect width="16" height="32" fill="#18202a" fill-opacity="1.00"/>
    <rect width="1" height="32" fill="#a6afbd" fill-opacity="0.100"/>
  </g>
  <g id="right" transform="translate(48 16)">
    <rect width="16" height="32" fill="#18202a" fill-opacity="1.00"/>
    <rect x="15" width="1" height="32" fill="#a6afbd" fill-opacity="0.100"/>
  </g>
  <rect id="center" x="16" y="16" width="32" height="32" fill="#18202a" fill-opacity="1.00"/>
  <g id="topleft">
    <g opacity="1.00">
      <path d="M16 0v16H0v-1C0 6.72 6.72 0 15 0h1z" fill="#18202a"/>
    </g>
    <g opacity="0.100">
      <path id="rim-topleft" d="M16 0H15C6.72 0 0 6.72 0 15V16H1V15C1 7.27 7.27 1 15 1H16Z" fill="#a6afbd"/>
    </g>
  </g>
  <g id="topright" transform="translate(48 0)">
    <g opacity="1.00">
      <path d="M0 0v16h16v-1C16 6.72 9.28 0 1 0H0z" fill="#18202a"/>
    </g>
    <g opacity="0.100">
      <path id="rim-topright" d="M0 0H1C9.28 0 16 6.72 16 15V16H15V15C15 7.27 8.73 1 1 1H0Z" fill="#a6afbd"/>
    </g>
  </g>
  <g id="bottomleft" transform="translate(0 48)">
    <g opacity="1.00">
      <path d="M16 16V0H0v1c0 8.28 6.72 15 15 15h1z" fill="#18202a"/>
    </g>
    <g opacity="0.100">
      <path id="rim-bottomleft" d="M16 16H15C6.72 16 0 9.28 0 1V0H1V1C1 8.73 7.27 15 15 15H16Z" fill="#a6afbd"/>
    </g>
  </g>
  <g id="bottomright" transform="translate(48 48)">
    <g opacity="1.00">
      <path d="M0 16V0h16v1c0 8.28-6.72 15-15 15H0z" fill="#18202a"/>
    </g>
    <g opacity="0.100">
      <path id="rim-bottomright" d="M0 16H1C9.28 16 16 9.28 16 1V0H15V1C15 8.73 8.73 15 1 15H0Z" fill="#a6afbd"/>
    </g>
  </g>

  <rect id="hint-top-margin" x="31" width="2" height="12" fill="#ff00ff"/>
  <rect id="hint-bottom-margin" x="31" y="52" width="2" height="12" fill="#ff00ff"/>
  <rect id="hint-left-margin" y="31" width="12" height="2" fill="#ff00ff"/>
  <rect id="hint-right-margin" x="52" y="31" width="12" height="2" fill="#ff00ff"/>
  <rect id="hint-stretch-borders" x="69" width="1" height="1" fill="#ff6600"/>
  <!-- Plasma renders these nine slices independently. A tiled centre avoids
       scaling artefacts without painting it again beneath translucent edges. -->
  <rect id="hint-tile-center" x="70" width="1" height="1" fill="#ff6600"/>

  <rect id="mask-top" x="96" width="32" height="16" fill="#000000"/>
  <rect id="mask-bottom" x="96" y="48" width="32" height="16" fill="#000000"/>
  <rect id="mask-left" x="80" y="16" width="16" height="32" fill="#000000"/>
  <rect id="mask-right" x="128" y="16" width="16" height="32" fill="#000000"/>
  <rect id="mask-center" x="96" y="16" width="32" height="32" fill="#000000"/>
  <g id="mask-topleft">
    <path d="M96 0v16H80v-1c0-8.28 6.72-15 15-15h1z" fill="#000000"/>
    <rect x="95" width="1" height="16" fill="#000000"/>
    <rect x="80" y="15" width="16" height="1" fill="#000000"/>
  </g>
  <g id="mask-topright">
    <path d="M128 0v16h16v-1c0-8.28-6.72-15-15-15h-1z" fill="#000000"/>
    <rect x="128" width="1" height="16" fill="#000000"/>
    <rect x="128" y="15" width="16" height="1" fill="#000000"/>
  </g>
  <g id="mask-bottomleft">
    <path d="M96 64V48H80v1c0 8.28 6.72 15 15 15h1z" fill="#000000"/>
    <rect x="95" y="48" width="1" height="16" fill="#000000"/>
    <rect x="80" y="48" width="16" height="1" fill="#000000"/>
  </g>
  <g id="mask-bottomright">
    <path d="M128 64V48h16v1c0 8.28-6.72 15-15 15h-1z" fill="#000000"/>
    <rect x="128" y="48" width="1" height="16" fill="#000000"/>
    <rect x="128" y="48" width="16" height="1" fill="#000000"/>
  </g>

  <!-- Neutral slices suppress Breeze's fallback shadow without reserving an
       invisible gutter around an edge-attached popup. -->
  <rect id="shadow-center" x="192" y="16" width="32" height="32" fill="#000000" fill-opacity="0.001"/>
  <rect id="shadow-top" x="192" width="32" height="16" fill="#000000" fill-opacity="0.001"/>
  <rect id="shadow-bottom" x="192" y="48" width="32" height="16" fill="#000000" fill-opacity="0.001"/>
  <rect id="shadow-left" x="176" y="16" width="16" height="32" fill="#000000" fill-opacity="0.001"/>
  <rect id="shadow-right" x="224" y="16" width="16" height="32" fill="#000000" fill-opacity="0.001"/>
  <rect id="shadow-topleft" x="176" width="16" height="16" fill="#000000" fill-opacity="0.001"/>
  <rect id="shadow-topright" x="224" width="16" height="16" fill="#000000" fill-opacity="0.001"/>
  <rect id="shadow-bottomleft" x="176" y="48" width="16" height="16" fill="#000000" fill-opacity="0.001"/>
  <rect id="shadow-bottomright" x="224" y="48" width="16" height="16" fill="#000000" fill-opacity="0.001"/>
  <rect id="shadow-hint-top-margin" x="207" width="2" height="0.001" fill="#ff00ff"/>
  <rect id="shadow-hint-bottom-margin" x="207" y="48" width="2" height="0.001" fill="#ff00ff"/>
  <rect id="shadow-hint-left-margin" x="176" y="31" width="0.001" height="2" fill="#ff00ff"/>
  <rect id="shadow-hint-right-margin" x="224" y="31" width="0.001" height="2" fill="#ff00ff"/>
</svg>
